<?xml version="1.0" standalone="no"?>
<!DOCTYPE svg PUBLIC "-//W3C//DTD SVG 20010904//EN"
 "http://www.w3.org/TR/2001/REC-SVG-20010904/DTD/svg10.dtd">
<svg version="1.0" xmlns="http://www.w3.org/2000/svg"
 width="1024.000000pt" height="1024.000000pt" viewBox="0 0 1024.000000 1024.000000"
 preserveAspectRatio="xMidYMid meet">

<g transform="translate(0.000000,1024.000000) scale(0.100000,-0.100000)"
fill="#000000" stroke="none">
<path d="M7235 7427 c-88 -77 -311 -273 -495 -436 -184 -164 -517 -456 -740
-651 -276 -241 -502 -450 -710 -655 -168 -166 -339 -330 -380 -365 -153 -131
-307 -213 -487 -261 -110 -30 -336 -37 -454 -15 -47 9 -90 16 -96 16 -16 0
-105 -142 -96 -151 5 -5 46 -18 93 -29 106 -27 372 -39 476 -21 112 19 240 59
343 107 53 25 98 45 100 45 3 0 17 -34 32 -75 54 -148 160 -314 282 -443 407
-429 1026 -542 1552 -283 253 125 479 354 605 614 64 132 81 178 113 306 21
83 21 106 24 1090 2 553 2 1082 1 1176 l-3 171 -160 -140z m-12 -649 c-2 -222
-4 -662 -6 -978 l-3 -575 -27 -100 c-111 -399 -423 -721 -803 -829 -173 -49
-327 -59 -490 -31 -255 44 -463 152 -644 335 -134 135 -233 295 -286 463 l-18
59 44 36 c25 20 108 97 185 171 l140 135 6 -99 c9 -154 50 -267 145 -401 98
-138 262 -249 429 -289 90 -22 257 -23 346 -2 279 67 502 303 565 596 11 53
14 209 14 812 l0 747 167 148 c141 126 232 204 237 204 0 0 0 -181 -1 -402z
m-585 -933 l-3 -550 -27 -75 c-70 -190 -225 -329 -419 -375 -87 -20 -161 -19
-253 5 -112 28 -190 73 -272 155 -114 114 -164 240 -164 411 0 148 49 270 153
379 29 30 261 237 517 460 l465 406 3 -133 c1 -73 1 -380 0 -683z"/>
<path d="M3947 7504 c-180 -28 -412 -126 -562 -237 -89 -65 -216 -192 -284
-282 -67 -89 -173 -304 -205 -417 -56 -194 -56 -202 -56 -1397 0 -605 2 -1101
5 -1101 2 0 39 14 80 30 340 135 540 346 639 673 77 253 225 462 404 571 80
48 144 71 262 91 165 28 260 64 370 138 25 17 205 189 400 382 412 407 531
503 737 597 82 37 239 78 300 78 25 0 59 7 76 15 41 20 184 151 175 160 -12
12 -270 9 -338 -4 -150 -29 -322 -97 -449 -178 -29 -19 -57 -31 -61 -26 -4 4
-15 31 -25 58 -30 83 -110 236 -163 310 -68 96 -190 220 -291 294 -106 78
-313 181 -423 211 -188 51 -404 63 -591 34z m403 -175 c84 -13 211 -51 297
-90 144 -64 327 -209 436 -344 74 -92 159 -260 187 -370 l13 -51 -64 -59 c-35
-33 -116 -109 -179 -170 l-115 -110 -6 90 c-17 254 -135 459 -341 592 -229
148 -538 160 -773 28 -163 -91 -284 -241 -357 -445 l-23 -65 -6 -725 c-5 -711
-6 -726 -27 -798 -44 -143 -124 -272 -228 -364 -52 -47 -123 -98 -136 -98 -13
0 -10 1881 3 1985 16 133 52 245 119 380 70 140 156 252 265 346 258 223 597
320 935 268z m-58 -584 c112 -23 193 -68 279 -154 116 -116 169 -244 169 -406
0 -160 -54 -291 -165 -401 -110 -109 -184 -141 -436 -188 -166 -31 -298 -105
-447 -251 l-93 -91 3 525 3 526 26 67 c59 152 152 259 282 324 120 61 247 77
379 49z"/>
<path d="M3520 3606 c-210 -59 -340 -243 -340 -481 0 -155 44 -271 139 -365
183 -183 519 -181 690 5 39 43 101 154 101 182 0 9 -33 13 -117 15 l-118 3
-46 -47 c-130 -131 -342 -80 -394 96 -44 148 5 304 115 366 93 52 234 23 285
-57 l20 -32 128 -1 c100 0 127 3 127 13 0 8 -14 43 -32 78 -57 114 -166 200
-289 228 -60 14 -214 12 -269 -3z"/>
<path d="M1432 3123 l3 -488 118 -3 117 -3 0 174 0 174 123 6 c67 3 140 11
162 17 184 53 276 269 189 447 -29 61 -68 96 -144 132 -54 26 -59 26 -313 29
l-258 3 3 -488z m443 282 c40 -20 55 -51 55 -115 0 -37 -6 -56 -24 -77 -23
-26 -30 -28 -123 -33 -54 -4 -101 -4 -105 -2 -5 2 -8 57 -8 123 l0 119 86 0
c57 0 97 -5 119 -15z"/>
<path d="M2272 3253 l3 -358 26 -56 c72 -152 211 -228 399 -216 186 11 319
107 365 261 12 39 15 120 15 388 l0 338 -114 0 -115 0 -3 -327 c-3 -291 -5
-332 -21 -360 -62 -115 -260 -102 -306 20 -7 18 -11 146 -11 348 l0 319 -120
0 -121 0 3 -357z"/>
<path d="M8490 3505 l0 -95 -45 0 -45 0 0 -100 0 -100 44 0 44 0 4 -202 c4
-221 10 -247 64 -302 52 -52 107 -69 224 -70 l105 -1 0 100 0 100 -68 5 c-45
3 -71 10 -77 20 -5 8 -10 90 -10 183 0 152 2 167 18 168 9 1 44 2 77 3 l60 1
3 98 3 97 -81 0 -80 0 0 95 0 95 -120 0 -120 0 0 -95z"/>
<path d="M4450 3404 c-224 -60 -338 -313 -248 -551 31 -81 121 -171 203 -203
174 -66 389 -16 488 115 121 158 111 394 -23 539 -91 99 -267 141 -420 100z
m207 -215 c51 -32 76 -95 71 -184 -4 -82 -19 -113 -79 -153 -28 -20 -43 -23
-87 -20 -89 8 -142 76 -142 184 0 109 30 162 107 190 44 15 84 10 130 -17z"/>
<path d="M5448 3407 c-51 -19 -128 -66 -128 -77 0 -6 -4 -10 -10 -10 -5 0 -10
20 -10 45 l0 45 -118 0 -118 0 2 -312 c1 -172 3 -348 3 -390 l1 -78 115 0 115
0 0 228 c0 125 5 243 10 263 32 116 206 135 260 28 18 -35 20 -60 20 -279 l0
-240 115 0 115 0 1 118 c0 64 1 187 2 272 1 132 -1 163 -18 209 -25 67 -82
133 -139 161 -57 27 -167 36 -218 17z"/>
<path d="M6335 3407 c-62 -21 -101 -44 -124 -73 l-21 -27 0 52 0 51 -120 0
-120 0 0 -390 0 -390 120 0 120 0 0 241 c0 201 3 247 16 275 48 101 204 98
256 -6 16 -30 18 -66 18 -272 l0 -238 114 0 113 0 7 233 c10 301 -3 380 -76
462 -66 76 -206 114 -303 82z"/>
<path d="M7049 3402 c-105 -35 -170 -96 -221 -207 -20 -44 -23 -66 -23 -175 0
-114 2 -130 26 -180 38 -80 100 -144 174 -181 128 -63 305 -47 417 36 50 37
112 121 124 168 l6 27 -126 0 c-115 0 -126 -2 -136 -20 -26 -49 -129 -66 -187
-30 -34 20 -63 66 -63 99 0 20 6 21 263 23 l262 3 3 55 c7 109 -35 227 -105
296 -21 20 -67 50 -102 67 -84 40 -224 48 -312 19z m227 -199 c24 -15 54 -67
54 -93 0 -6 -52 -10 -145 -10 -136 0 -145 1 -145 19 0 26 47 81 85 98 38 17
115 10 151 -14z"/>
<path d="M7865 3399 c-161 -52 -249 -185 -249 -379 0 -201 100 -342 274 -386
188 -48 383 36 450 192 36 84 36 84 -95 84 l-116 0 -38 -40 c-35 -37 -42 -40
-89 -40 -43 0 -57 5 -86 31 -42 36 -56 80 -56 169 1 109 43 177 118 187 48 6
97 -17 120 -58 l17 -29 127 0 126 0 -10 38 c-15 55 -35 89 -81 139 -93 101
-265 140 -412 92z"/>
</g>
</svg>
